<svg width="32" height="32" viewBox="0 0 32 32" fill="none" xmlns="http://www.w3.org/2000/svg">
<path d="M15.9724 21C14.7348 21 13.5478 20.5083 12.6726 19.6332C11.7974 18.758 11.3058 17.571 11.3058 16.3333C11.3058 15.0957 11.7974 13.9087 12.6726 13.0335C13.5478 12.1583 14.7348 11.6667 15.9724 11.6667C17.2101 11.6667 18.3971 12.1583 19.2723 13.0335C20.1474 13.9087 20.6391 15.0957 20.6391 16.3333C20.6391 17.571 20.1474 18.758 19.2723 19.6332C18.3971 20.5083 17.2101 21 15.9724 21ZM25.8791 17.6267C25.9324 17.2 25.9724 16.7733 25.9724 16.3333C25.9724 15.8933 25.9324 15.4533 25.8791 15L28.6924 12.8267C28.9458 12.6267 29.0124 12.2667 28.8524 11.9733L26.1858 7.36C26.0258 7.06667 25.6658 6.94667 25.3724 7.06667L22.0524 8.4C21.3591 7.88 20.6391 7.42667 19.7991 7.09333L19.3058 3.56C19.2524 3.24 18.9724 3 18.6391 3H13.3058C12.9724 3 12.6924 3.24 12.6391 3.56L12.1458 7.09333C11.3058 7.42667 10.5858 7.88 9.89244 8.4L6.57244 7.06667C6.27911 6.94667 5.91911 7.06667 5.75911 7.36L3.09244 11.9733C2.91911 12.2667 2.99911 12.6267 3.25244 12.8267L6.06578 15C6.01244 15.4533 5.97244 15.8933 5.97244 16.3333C5.97244 16.7733 6.01244 17.2 6.06578 17.6267L3.25244 19.84C2.99911 20.04 2.91911 20.4 3.09244 20.6933L5.75911 25.3067C5.91911 25.6 6.27911 25.7067 6.57244 25.6L9.89244 24.2533C10.5858 24.7867 11.3058 25.24 12.1458 25.5733L12.6391 29.1067C12.6924 29.4267 12.9724 29.6667 13.3058 29.6667H18.6391C18.9724 29.6667 19.2524 29.4267 19.3058 29.1067L19.7991 25.5733C20.6391 25.2267 21.3591 24.7867 22.0524 24.2533L25.3724 25.6C25.6658 25.7067 26.0258 25.6 26.1858 25.3067L28.8524 20.6933C29.0124 20.4 28.9458 20.04 28.6924 19.84L25.8791 17.6267Z" fill="#CE4F18"/>
</svg>
