<svg width="32" height="32" viewBox="0 0 32 32" fill="none" xmlns="http://www.w3.org/2000/svg">
<path d="M17.7867 10.8933C16.5467 10.8933 15.5334 9.86668 15.5334 8.62668C15.5334 8.02906 15.7708 7.45591 16.1934 7.03333C16.6159 6.61075 17.1891 6.37334 17.7867 6.37334C19.04 6.37334 20.0534 7.38668 20.0534 8.62668C20.0534 9.86668 19.04 10.8933 17.7867 10.8933ZM13.7334 26.5733L5.82671 25L6.28004 22.7333L11.8134 23.8667L13.6134 14.72L11.5867 15.52V19.3333H9.33337V14.0533L15.2 11.56L16.0934 11.4533C16.8934 11.4533 17.56 11.9067 18 12.5867L19.1467 14.3867C20.0534 16 21.8534 17.0933 24 17.0933V19.3333C21.52 19.3333 19.2534 18.2267 17.7867 16.5333L17.12 19.92L19.48 22.1733V30.6667H17.2267V23.8667L14.8534 21.6133L13.7334 26.5733ZM28 30.6667H25.3334V4.00001H8.00004V21.48L5.33337 20.92V1.33334H28V30.6667ZM8.00004 30.6667H5.33337V26.3733L8.00004 26.9333V30.6667Z" fill="#444444"/>
</svg>
