<svg width="35" height="32" viewBox="0 0 35 32" fill="none" xmlns="http://www.w3.org/2000/svg">
<path d="M17.0884 2.71997C9.25619 2.71997 2.84802 8.70664 2.84802 16.08C2.84802 22.7466 8.05999 28.28 14.8669 29.28V19.9466H11.2498V16.08H14.8669V13.1333C14.8669 9.78664 16.9887 7.94664 20.2497 7.94664C21.8019 7.94664 23.4254 8.19997 23.4254 8.19997V11.4933H21.6311C19.8653 11.4933 19.3099 12.52 19.3099 13.5733V16.08H23.2687L22.6279 19.9466H19.3099V29.28C22.6655 28.7838 25.7212 27.1807 27.9252 24.7601C30.1292 22.3394 31.3364 19.2608 31.3288 16.08C31.3288 8.70664 24.9206 2.71997 17.0884 2.71997Z" fill="#444444"/>
</svg>
