<svg width="32" height="32" viewBox="0 0 32 32" fill="none" xmlns="http://www.w3.org/2000/svg">
<path d="M10.6267 21.3333L6.66675 25.3333C6.22675 25.7333 5.64008 26 5.00008 26C4.38124 26 3.78775 25.7542 3.35017 25.3166C2.91258 24.879 2.66675 24.2855 2.66675 23.6667V23.3333L4.00008 13.4933C4.28008 10.4133 6.85342 8 10.0001 8H22.0001C25.1467 8 27.7201 10.4133 28.0001 13.4933L29.3334 23.3333V23.6667C29.3334 24.2855 29.0876 24.879 28.65 25.3166C28.2124 25.7542 27.6189 26 27.0001 26C26.3601 26 25.7734 25.7333 25.3334 25.3333L21.3734 21.3333H10.6267ZM9.33342 10.6667V13.3333H6.66675V14.6667H9.33342V17.3333H10.6667V14.6667H13.3334V13.3333H10.6667V10.6667H9.33342ZM22.0001 10.6667C21.7349 10.6667 21.4805 10.772 21.293 10.9596C21.1054 11.1471 21.0001 11.4015 21.0001 11.6667C21.0001 11.9319 21.1054 12.1862 21.293 12.3738C21.4805 12.5613 21.7349 12.6667 22.0001 12.6667C22.2653 12.6667 22.5197 12.5613 22.7072 12.3738C22.8947 12.1862 23.0001 11.9319 23.0001 11.6667C23.0001 11.4015 22.8947 11.1471 22.7072 10.9596C22.5197 10.772 22.2653 10.6667 22.0001 10.6667ZM19.6667 13C19.4015 13 19.1472 13.1054 18.9596 13.2929C18.7721 13.4804 18.6667 13.7348 18.6667 14C18.6667 14.2652 18.7721 14.5196 18.9596 14.7071C19.1472 14.8946 19.4015 15 19.6667 15C19.932 15 20.1863 14.8946 20.3739 14.7071C20.5614 14.5196 20.6667 14.2652 20.6667 14C20.6667 13.7348 20.5614 13.4804 20.3739 13.2929C20.1863 13.1054 19.932 13 19.6667 13ZM24.3334 13C24.0682 13 23.8138 13.1054 23.6263 13.2929C23.4388 13.4804 23.3334 13.7348 23.3334 14C23.3334 14.2652 23.4388 14.5196 23.6263 14.7071C23.8138 14.8946 24.0682 15 24.3334 15C24.5986 15 24.853 14.8946 25.0405 14.7071C25.2281 14.5196 25.3334 14.2652 25.3334 14C25.3334 13.7348 25.2281 13.4804 25.0405 13.2929C24.853 13.1054 24.5986 13 24.3334 13ZM22.0001 15.3333C21.7349 15.3333 21.4805 15.4387 21.293 15.6262C21.1054 15.8138 21.0001 16.0681 21.0001 16.3333C21.0001 16.5985 21.1054 16.8529 21.293 17.0404C21.4805 17.228 21.7349 17.3333 22.0001 17.3333C22.2653 17.3333 22.5197 17.228 22.7072 17.0404C22.8947 16.8529 23.0001 16.5985 23.0001 16.3333C23.0001 16.0681 22.8947 15.8138 22.7072 15.6262C22.5197 15.4387 22.2653 15.3333 22.0001 15.3333Z" fill="#CE4F18"/>
</svg>
