<svg width="32" height="32" viewBox="0 0 32 32" fill="none" xmlns="http://www.w3.org/2000/svg">
<path d="M28.4667 14.8H16.24V18.44H24.92C24.48 23.52 20.2533 25.6934 16.2533 25.6934C11.1467 25.6934 6.66667 21.6667 6.66667 16C6.66667 10.5334 10.9333 6.30669 16.2667 6.30669C20.3867 6.30669 22.8 8.93335 22.8 8.93335L25.3333 6.29335C25.3333 6.29335 22.08 2.66669 16.1333 2.66669C8.56 2.66669 2.70667 9.06669 2.70667 16C2.70667 22.7334 8.21333 29.3334 16.3333 29.3334C23.4667 29.3334 28.6667 24.44 28.6667 17.2134C28.6667 15.68 28.4667 14.8 28.4667 14.8Z" fill="#444444"/>
</svg>
