<svg width="32" height="32" viewBox="0 0 32 32" fill="none" xmlns="http://www.w3.org/2000/svg">
<path d="M21.3333 22.6667V18.6667H12V13.3334H21.3333V9.33335L28 16L21.3333 22.6667ZM18.6667 2.66669C19.3739 2.66669 20.0522 2.94764 20.5523 3.44774C21.0524 3.94783 21.3333 4.62611 21.3333 5.33335V8.00002H18.6667V5.33335H6.66667V26.6667H18.6667V24H21.3333V26.6667C21.3333 27.3739 21.0524 28.0522 20.5523 28.5523C20.0522 29.0524 19.3739 29.3334 18.6667 29.3334H6.66667C5.95942 29.3334 5.28115 29.0524 4.78105 28.5523C4.28095 28.0522 4 27.3739 4 26.6667V5.33335C4 4.62611 4.28095 3.94783 4.78105 3.44774C5.28115 2.94764 5.95942 2.66669 6.66667 2.66669H18.6667Z" fill="#444444"/>
</svg>
