<svg width="36" height="32" viewBox="0 0 36 32" fill="none" xmlns="http://www.w3.org/2000/svg">
<path d="M33.3496 7.99998C32.2063 8.46665 30.9739 8.77331 29.6969 8.91998C31.0036 8.21331 32.0133 7.09331 32.4884 5.74665C31.256 6.41331 29.89 6.87998 28.4496 7.14665C27.2766 5.99998 25.6284 5.33331 23.7575 5.33331C20.2681 5.33331 17.4172 7.89331 17.4172 11.0533C17.4172 11.5066 17.4766 11.9466 17.5806 12.36C12.2945 12.12 7.58753 9.83998 4.4545 6.38665C3.90511 7.22665 3.59329 8.21331 3.59329 9.25331C3.59329 11.24 4.70692 13 6.42935 14C5.37511 14 4.39511 13.7333 3.53389 13.3333C3.53389 13.3333 3.53389 13.3333 3.53389 13.3733C3.53389 16.1466 5.73147 18.4666 8.64177 18.9866C8.10723 19.12 7.54298 19.1866 6.96389 19.1866C6.56298 19.1866 6.16208 19.1466 5.77602 19.08C6.57783 21.3333 8.90905 23.0133 11.7154 23.0533C9.54753 24.6 6.80056 25.5066 3.80117 25.5066C3.29632 25.5066 2.79147 25.48 2.28662 25.4266C5.10783 27.0533 8.46359 28 12.0569 28C23.7575 28 30.1869 19.28 30.1869 11.72C30.1869 11.4666 30.1869 11.2266 30.1721 10.9733C31.4193 10.1733 32.4884 9.15998 33.3496 7.99998Z" fill="#444444"/>
</svg>
